# xmcd
#
# Track frame offsets:
# 150
# 19743
# 37834
# 57078
# 75170
# 88288
# 108427
# 135813
# 158435
# 176428
# 219360
# 219960
# 237525
# 261661
# 279542
#
# Disc length: 4068 seconds
#
#
# Revision: 0
# Processed by: cddbd v1.5.1PL0 Copyright (c) Steve Scherf et al.
# Submitted via: FreeRIP 2.40 
#
DISCID=bd0fe20f
DTITLE=Doc MacLean - Narrow House
DYEAR=2005
DGENRE=Blues
TTITLE0=Bone Train
TTITLE1=By Degree
TTITLE2=Charley James' Blues
TTITLE3=Johnson Terraplane
TTITLE4=Three Cards On A Coffin
TTITLE5=Angola Prison Rodeo
TTITLE6=Narrow House
TTITLE7=Dead Men Walking
TTITLE8=Ain't She Pretty
TTITLE9=Who's Gonna Love You
TTITLE10=(Silence)
TTITLE11=Goin' Away Now Baby
TTITLE12=Woke Up This Mornin'
TTITLE13=Jelly Roll
TTITLE14=Voodoo Queen
EXTD=http://www.docmaclean.com -- Please buy this CD if you like it!
EXTT0=
EXTT1=
EXTT2=
EXTT3=
EXTT4=
EXTT5=
EXTT6=
EXTT7=
EXTT8=
EXTT9=
EXTT10=
EXTT11=
EXTT12=
EXTT13=
EXTT14=
PLAYORDER=
